<?xml version="1.0" encoding="UTF-8"?>
<svg width="263px" height="154px" viewBox="0 0 263 154" version="1.1" xmlns="http://www.w3.org/2000/svg" xmlns:xlink="http://www.w3.org/1999/xlink">
    <!-- Generator: sketchtool 52.6 (67491) - http://www.bohemiancoding.com/sketch -->
    <title>64E7B2D7-243A-416C-89E7-B7B706ECBFAC</title>
    <desc>Created with sketchtool.</desc>
    <defs>
        <linearGradient x1="89.0365325%" y1="84.3799591%" x2="11.1897833%" y2="15.8192229%" id="linearGradient-1">
            <stop stop-color="#FF5324" offset="0%"></stop>
            <stop stop-color="#F7931E" offset="100%"></stop>
        </linearGradient>
    </defs>
    <g id="Page-1" stroke="none" stroke-width="1" fill="none" fill-rule="evenodd">
        <g id="Wallet-Landing-page---Mobile" transform="translate(-63.000000, -5473.000000)">
            <g id="Section" transform="translate(20.000000, 5291.000000)">
                <g id="Group-5" transform="translate(43.000000, 183.000000)">
                    <g id="Group-4" transform="translate(20.000000, 0.000000)">
                        <g id="Group" transform="translate(168.000000, 117.000000)" fill="#FFFFFF" opacity="0.06">
                            <path d="M0,10.9290725 L0,25.014809 C0,26.3616524 0.718480138,27.7084957 1.98963731,28.4380359 L14.0932642,35.4528449 C15.253886,36.182385 16.746114,36.182385 17.9067358,35.4528449 L30.0103627,28.4380359 C31.1709845,27.7084957 32,26.4177708 32,25.014809 L32,10.985191 C32,9.63834762 31.2815199,8.29150429 30.0103627,7.56196415 L17.9067358,0.547155105 C16.746114,-0.182385035 15.253886,-0.182385035 14.0932642,0.547155105 L1.98963731,7.56196415 C0.829015544,8.29150429 0,9.58222915 0,10.9290725 Z" id="Path"></path>
                            <path d="M6,13.7300771 L6,22.2699229 C6,23.1182519 6.43930636,23.9100257 7.15317919,24.3624679 L14.3468208,28.6606684 C15.0606936,29.1131105 15.9393064,29.1131105 16.6531792,28.6606684 L23.8468208,24.3624679 C24.5606936,23.9100257 25,23.1748072 25,22.2699229 L25,13.7300771 C25,12.8817481 24.5606936,12.0899743 23.8468208,11.6375321 L16.6531792,7.33933162 C15.9393064,6.88688946 15.0606936,6.88688946 14.3468208,7.33933162 L7.15317919,11.6375321 C6.43930636,12.033419 6,12.8817481 6,13.7300771 Z" id="Path"></path>
                            <path d="M10,16.3 L10,20.7 C10,21.1631579 10.2312139,21.5684211 10.5780347,21.6842105 L14.3930636,23.8263158 C14.7398844,24.0578947 15.2601156,24.0578947 15.6069364,23.8263158 L19.4219653,21.6842105 C19.7687861,21.4526316 20,21.0473684 20,20.7 L20,16.3 C20,15.8368421 19.7687861,15.4315789 19.4219653,15.3157895 L15.6069364,13.1736842 C15.2601156,12.9421053 14.7398844,12.9421053 14.3930636,13.1736842 L10.5780347,15.3157895 C10.3468208,15.4315789 10,15.9526316 10,16.3 Z" id="Path"></path>
                        </g>
                        <g id="Group" transform="translate(0.000000, 94.000000)" fill="#FFFFFF">
                            <path d="M49.6,6.9 C46.1,0.8 38.3,-1.3 32.2,2.1 C26.1,5.6 24.1,13.3 27.6,19.5 C31.1,25.6 38.9,27.7 45,24.3 C51,20.7 53.1,13 49.6,6.9 Z" id="Path" stroke="#FFFFFF" stroke-width="3" opacity="0.11"></path>
                            <path d="M41,11.9 C40.3,10.6 38.6,10.1 37.2,10.9 C35.8,11.7 35.4,13.3 36.2,14.7 C36.9,16 38.6,16.5 40,15.7 C41.4,14.9 41.8,13.1 41,11.9 Z" id="Path"></path>
                            <path d="M43.8,10.3 C42.2,7.4 38.5,6.5 35.8,8.1 C32.9,9.7 32.1,13.3 33.7,16.1 C35.3,18.9 39,19.9 41.7,18.3 C44.4,16.6 45.4,13.1 43.8,10.3 Z" id="Path" stroke="#FFFFFF" stroke-width="5" opacity="0.35"></path>
                            <path d="M3.2,33.7 C2.8,33 2,32.9 1.4,33.2 C0.7,33.6 0.6,34.4 0.9,35 C1.3,35.7 2.1,35.8 2.7,35.5 C3.3,35.2 3.6,34.4 3.2,33.7 Z" id="Path" opacity="0.11"></path>
                            <path d="M8.3,30.7 C7.9,30 7.1,29.9 6.5,30.2 C5.8,30.6 5.7,31.4 6,32 C6.4,32.7 7.2,32.8 7.8,32.5 C8.4,32.2 8.7,31.4 8.3,30.7 Z" id="Path" opacity="0.26"></path>
                            <circle id="Oval" opacity="0.44" cx="12.2" cy="28.5" r="1.3"></circle>
                            <path d="M18.6,24.8 C18.2,24.1 17.4,24 16.8,24.3 C16.1,24.7 16,25.5 16.3,26.1 C16.7,26.8 17.5,26.9 18.1,26.6 C18.7,26.3 19,25.5 18.6,24.8 Z" id="Path" opacity="0.7"></path>
                            <path d="M23.8,21.8 C23.4,21.1 22.6,21 22,21.3 C21.3,21.7 21.2,22.5 21.5,23.1 C21.9,23.8 22.7,23.9 23.3,23.6 C23.9,23.3 24.2,22.5 23.8,21.8 Z" id="Path"></path>
                        </g>
                        <g id="Group" transform="translate(149.000000, 13.000000)" fill="#FFFFFF">
                            <path d="M2.2,29.6 C5.7,35.7 13.5,37.8 19.6,34.4 C25.7,30.9 27.7,23.2 24.2,17 C20.7,10.9 12.9,8.8 6.8,12.2 C0.8,15.8 -1.3,23.5 2.2,29.6 Z" id="Path" stroke="#FFFFFF" stroke-width="3" opacity="0.11"></path>
                            <path d="M10.8,24.6 C11.5,25.9 13.2,26.4 14.6,25.6 C16,24.8 16.4,23.2 15.6,21.8 C14.9,20.5 13.2,20 11.8,20.8 C10.4,21.6 10,23.4 10.8,24.6 Z" id="Path"></path>
                            <path d="M8,26.2 C9.6,29.1 13.3,30 16,28.4 C18.9,26.8 19.7,23.2 18.1,20.4 C16.5,17.6 12.8,16.6 10.1,18.2 C7.4,19.9 6.4,23.4 8,26.2 Z" id="Path" stroke="#FFFFFF" stroke-width="5" opacity="0.35"></path>
                            <path d="M48.6,2.8 C49,3.5 49.8,3.6 50.4,3.3 C51.1,2.9 51.2,2.1 50.9,1.5 C50.5,0.8 49.7,0.7 49.1,1 C48.5,1.3 48.2,2.1 48.6,2.8 Z" id="Path" opacity="0.11"></path>
                            <path d="M43.5,5.8 C43.9,6.5 44.7,6.6 45.3,6.3 C46,5.9 46.1,5.1 45.8,4.5 C45.4,3.8 44.6,3.7 44,4 C43.4,4.3 43.1,5.1 43.5,5.8 Z" id="Path" opacity="0.26"></path>
                            <circle id="Oval" opacity="0.44" cx="39.6" cy="8" r="1.3"></circle>
                            <path d="M33.2,11.7 C33.6,12.4 34.4,12.5 35,12.2 C35.7,11.8 35.8,11 35.5,10.4 C35.1,9.7 34.3,9.6 33.7,9.9 C33.1,10.2 32.8,11 33.2,11.7 Z" id="Path" opacity="0.7"></path>
                            <path d="M28,14.7 C28.4,15.4 29.2,15.5 29.8,15.2 C30.5,14.8 30.6,14 30.3,13.4 C29.9,12.7 29.1,12.6 28.5,12.9 C27.9,13.2 27.6,14 28,14.7 Z" id="Path"></path>
                        </g>
                        <g id="Group" transform="translate(182.000000, 52.000000)" fill="#FFFFFF">
                            <path d="M0,21.5707547 L0,46.509434 C0,49.6367925 1.68110236,52.6839623 4.40288714,54.2877358 L26.0170604,66.7971698 C28.8188976,68.4009434 32.1811024,68.4009434 34.9829396,66.7971698 L56.5971129,54.2877358 C59.3989501,52.6839623 61,49.7169811 61,46.509434 L61,21.490566 C61,18.3632075 59.3188976,15.3160377 56.5971129,13.7122642 L34.9829396,1.20283019 C32.1811024,-0.400943396 28.8188976,-0.400943396 26.0170604,1.20283019 L4.40288714,13.7122642 C1.68110236,15.3160377 0,18.2028302 0,21.5707547 Z" id="Path" opacity="0.12"></path>
                            <path d="M41.8592293,30.862069 L34.1359736,30.862069 L34.1359736,23.137931 C34.1359736,21.4482759 32.6878632,20 30.998401,20 C29.3089388,20 27.8608284,21.4482759 27.8608284,23.137931 L27.8608284,30.862069 L20.1375726,30.862069 C18.2872093,30.862069 17,32.3103448 17,34 C17,35.6896552 18.4481104,37.137931 20.1375726,37.137931 L27.8608284,37.137931 L27.8608284,44.862069 C27.8608284,46.5517241 29.3089388,48 30.998401,48 C32.6878632,48 34.1359736,46.5517241 34.1359736,44.862069 L34.1359736,37.137931 L41.8592293,37.137931 C43.5486915,37.137931 44.996802,35.6896552 44.996802,34 C45.0772526,32.2298851 43.6291421,30.862069 41.8592293,30.862069 Z" id="Path" opacity="0.35"></path>
                        </g>
                        <path d="M46.2,42.4 L46.2,100 C46.2,101.4 47,102.8 48.2,103.5 L98.3,132.3 C99.5,133 101.1,133 102.3,132.3 L152.4,103.5 C153.6,102.8 154.4,101.4 154.4,100 L154.4,42.4 C154.4,41 153.6,39.6 152.4,38.9 L102.3,10.1 C101.1,9.4 99.5,9.4 98.3,10.1 L48.2,38.9 C47,39.7 46.2,41 46.2,42.4 Z" id="Path" fill="#FFFFFF" opacity="0.09"></path>
                        <path d="M38.2,76.8 C37.3,76.8 36.7,77.4 36.7,78.3 C36.7,79.2 37.3,79.8 38.2,79.8 C39.1,79.8 39.7,79.2 39.7,78.3 C39.7,77.5 39.1,76.8 38.2,76.8 Z" id="Path" fill="#FFFFFF" opacity="0.11"></path>
                        <path d="M38.2,70.3 C37.3,70.3 36.7,70.9 36.7,71.8 C36.7,72.7 37.3,73.3 38.2,73.3 C39.1,73.3 39.7,72.7 39.7,71.8 C39.7,71 39.1,70.3 38.2,70.3 Z" id="Path" fill="#FFFFFF" opacity="0.26"></path>
                        <path d="M38.2,63.8 C37.3,63.8 36.7,64.4 36.7,65.3 C36.7,66.2 37.3,66.8 38.2,66.8 C39.1,66.8 39.7,66.2 39.7,65.3 C39.7,64.5 39.1,63.8 38.2,63.8 Z" id="Path" fill="#FFFFFF" opacity="0.44"></path>
                        <path d="M38.2,57.3 C37.3,57.3 36.7,57.9 36.7,58.8 C36.7,59.7 37.3,60.3 38.2,60.3 C39.1,60.3 39.7,59.7 39.7,58.8 C39.7,58 39.1,57.3 38.2,57.3 Z" id="Path" fill="#FFFFFF" opacity="0.7"></path>
                        <path d="M162.5,38.9 L162.5,104.6 C162.5,106.4 161.6,108.1 160,109 L102.9,141.9 C101.3,142.8 99.4,142.8 97.8,141.9 L40.7,109 C39.1,108.1 38.2,106.5 38.2,104.6 L38.2,38.9 C38.2,37.1 39.1,35.4 40.7,34.5 L97.8,1.6 C99.4,0.7 101.3,0.7 102.9,1.6 L160,34.5 C161.6,35.4 162.5,37.1 162.5,38.9 Z" id="Path" stroke="#FFFFFF" stroke-width="3" opacity="0.12"></path>
                        <g id="Group" transform="translate(58.000000, 25.000000)">
                            <path d="M0,27.4 L0,67.5 C0,69.9 1.3,72.2 3.5,73.5 L38.5,93.6 C40.7,94.8 43.2,94.8 45.4,93.6 L80.4,73.5 C82.6,72.3 83.9,70 83.9,67.5 L83.9,27.4 C83.9,25 82.6,22.7 80.4,21.4 L45.4,1.3 C43.2,0.1 40.7,0.1 38.5,1.3 L3.5,21.4 C1.3,22.7 0,24.9 0,27.4 Z" id="Path" fill="#FFFFFF"></path>
                            <path d="M9.6,31.3 L9.6,63.1 C9.6,64.8 10.5,66.4 12,67.3 L39.5,83.2 C41,84.1 42.9,84.1 44.3,83.2 L71.8,67.3 C73.3,66.4 74.2,64.9 74.2,63.1 L74.2,31.3 C74.2,29.6 73.3,28 71.8,27.1 L44.3,11.2 C42.8,10.3 40.9,10.3 39.5,11.2 L12,27.1 C10.6,27.9 9.6,29.5 9.6,31.3 Z" id="Path" fill="url(#linearGradient-1)"></path>
                            <g transform="translate(28.000000, 25.000000)" fill="#FFFFFF" id="Path" opacity="0.5">
                                <g>
                                    <g>
                                        <path d="M29.8,21.8 C29.2,21 28.4,20.3 27.4,19.8 C28.8,18.4 29.3,16.4 29.1,14 C29,12.8 28.7,11.7 28,10.8 C27.4,9.9 26.6,9.1 25.6,8.5 C24.7,8 23.7,7.6 22.7,7.3 C22,7.2 21.3,7 20.4,6.9 L20.4,2.2 C20.4,1.5 19.8,0.9 19.1,0.9 L13.8,0.9 L13.8,42.5 L19.1,42.5 C19.8,42.5 20.4,41.9 20.4,41.2 L20.4,36.5 C21.3,36.4 22.1,36.4 22.7,36.2 C23.8,36 24.9,35.7 25.8,35.3 C26.9,34.9 27.7,34.4 28.5,33.7 C29.2,33.1 29.9,32.2 30.3,31.2 C30.7,30.2 31.1,29.1 31.2,27.8 C31.3,25.2 30.9,23.2 29.8,21.8 Z" opacity="0.7"></path>
                                        <path d="M13.7,0.8 L8.9,0.8 C8.2,0.8 7.6,1.4 7.6,2.1 L7.6,6.7 C7.3,6.7 7,6.7 6.7,6.7 L1.7,6.7 C1.3,6.7 1.1,6.8 0.8,7.1 C0.6,7.3 0.4,7.7 0.4,8 L0.4,11.8 C0.4,12.5 1,13.1 1.7,13.1 L4.3,13.1 C4.9,13.1 5,13.2 5.1,13.5 L5.1,29.4 C5.1,29.4 5.1,29.4 5,29.4 L2.4,29.4 C1.8,29.4 1.2,29.8 1.1,30.5 L0.4,34.8 C0.3,35.2 0.5,35.6 0.7,35.9 C0.9,36.2 1.3,36.3 1.7,36.3 L6.4,36.3 C6.7,36.3 7.1,36.3 7.6,36.3 L7.6,41 C7.6,41.7 8.2,42.3 8.9,42.3 L13.7,42.3 L13.7,0.8 Z"></path>
                                    </g>
                                </g>
                                <path d="M17.1,18.3 C17.1,16.5 15.6,15 13.7,15 C11.8,15 10.3,16.5 10.3,18.3 C10.3,19.7 11.2,20.8 12.3,21.3 L10.3,28.3 L17.1,28.3 L15.1,21.3 C16.2,20.8 17.1,19.6 17.1,18.3 Z"></path>
                            </g>
                        </g>
                    </g>
                    <path d="M21.7,51.925 L37.7,42.725 C38.9,42.025 39.6,40.825 39.6,39.425 L39.6,21.025 C39.6,19.625 38.9,18.425 37.7,17.725 L21.7,8.525 C20.5,7.825 19.1,7.825 17.9,8.525 L1.9,17.725 C0.7,18.425 1.70530257e-13,19.625 1.70530257e-13,21.025 L1.70530257e-13,39.425 C1.70530257e-13,40.825 0.7,42.025 1.9,42.725 L17.9,51.925 C19.1,52.525 20.5,52.525 21.7,51.925 Z M18.3,47.525 L5.5,40.225 C4.6,39.725 4,38.725 4,37.625 L4,22.925 C4,21.825 4.6,20.825 5.5,20.325 L18.3,13.025 C19.2,12.525 20.4,12.525 21.3,13.025 L34.1,20.325 C35,20.825 35.6,21.825 35.6,22.925 L35.6,37.625 C35.6,38.725 35,39.725 34.1,40.225 L21.3,47.525 C20.4,48.025 19.2,48.025 18.3,47.525 Z M19.2,36.925 L14.3,34.125 C13.9,33.925 13.7,33.525 13.7,33.125 L13.7,27.425 C13.7,27.025 13.9,26.625 14.3,26.425 L19.2,23.625 C19.6,23.425 20,23.425 20.4,23.625 L25.3,26.425 C25.7,26.625 25.9,27.025 25.9,27.425 L25.9,33.125 C25.9,33.525 25.7,33.925 25.3,34.125 L20.4,36.925 C20,37.125 19.6,37.125 19.2,36.925 Z" id="Shape" fill="#FFFFFF" fill-rule="nonzero" opacity="0.45"></path>
                </g>
            </g>
        </g>
    </g>
</svg>